<svg width="22" height="22" viewBox="0 0 22 22" fill="none" xmlns="http://www.w3.org/2000/svg">
<path fill-rule="evenodd" clip-rule="evenodd" d="M12 7.29413H9C8.83135 7.29413 8.66758 7.315 8.51113 7.35431C8.80388 7.52221 9 7.82997 9 8.18181C9 8.71342 8.55228 9.14438 8 9.14438C7.61496 9.14438 7.28075 8.93491 7.11365 8.62791C7.04005 8.8363 7 9.06054 7 9.29413V11.6567L8.32671 11.3587C9.04003 11.1985 9.76888 11.1176 10.5 11.1176C11.2311 11.1176 11.9599 11.1985 12.6732 11.3587L14 11.6567V9.29413C14 8.18956 13.1046 7.29413 12 7.29413ZM5 11.8824C5 12.3977 5.09747 12.8903 5.27498 13.3428V14.8235H5.27502V15.3529H5.54999V15.6176H7.56602C8.01117 15.7886 8.49464 15.8824 9 15.8824H12C12.5054 15.8824 12.9888 15.7886 13.434 15.6176H15.45V15.3529H15.725V14.5588H15.725V13.3429C15.9025 12.8904 16 12.3978 16 11.8824V9.29413C16 7.08499 14.2091 5.29413 12 5.29413H9C6.79086 5.29413 5 7.08499 5 9.29413V11.8824Z" fill="#3369F3"/>
<circle cx="11" cy="11" r="10.25" stroke="#3369F3" stroke-width="1.5"/>
</svg>
